<!-- Generated by IcoMoon.io -->
<svg version="1.1" xmlns="http://www.w3.org/2000/svg" width="1024" height="1024" viewBox="0 0 1024 1024">
<title></title>
<g id="icomoon-ignore">
</g>
<path d="M697.077 30.937s-32.312 28.377-48.437 47.925c-16.124 19.515-43.638 55.763-11.389 108.455 32.216 52.724 93.034 96.234 171.832 254.98 30.297 58.354 48.821 161.018 42.55 220.748 0 0-1.6 93.546-58.93 192.211-3.165 5.664-5.676 9.823-8.286 13.913l0.704-1.18c-50.58 80.301-138.208 139.135-243.527 152.796-50.036 6.494-98.825 2.143-143.71-11.197l-11.133-3.519-3.007-1.024c-48.59-16.952-90.127-43.322-124.25-77.157l0.023 0.023c-45.845-45.749-77.102-105.255-85.9-172.856-1.577-11.455-2.477-24.692-2.477-38.139 0-4.162 0.086-8.304 0.257-12.424l-0.019 0.59-3.135-2.112-2.655-2.080c-1.854-1.741-3.412-3.769-4.61-6.018l-0.061-0.125-2.239-4.607c-8.638-21.915-2.527-66.289 9.214-105.255l1.696-5.407 3.199-8.51c1.664-4.159 3.263-7.998 4.799-11.517l2.495-5.567 12.477-25.722 0.192 27.354c0.064 8.606 2.719 18.908 7.774 30.617l0.576 1.312-3.519 7.582c4.351-9.694 9.214-19.164 14.557-28.345 47.125-81.197 131.329-142.239 233.801-160.187h0.128c7.982-1.502 18.306-2.905 28.758-3.863l1.411-0.104c23.546-4.095 41.59-10.686 55.251-18.748 34.68-20.475 40.631-50.356 34.712-72.943-5.119-19.643-13.661-32.568-22.363-44.726-6.271-8.798-12.605-17.212-17.82-27.45-12.381-24.442-24.698-69.072 12.157-115.653 6.175-8.062 14.045-15.676 23.099-22.811 35.832-28.345 90.635-50.324 135.808-69.264zM601.579 525.509l-0.384 0.512c-67.697 67.308-140.789 129.367-218.508 185.409l-5.343 3.666c4.063 10.717 14.237 15.036 26.554 15.484 11.421 0.416 22.299 0.64 32.632 0.672h10.174l9.758-0.096c47.989-0.704 82.061-4.799 101.064-7.838 16.476-2.623 31.897-10.238 43.414-22.331 3.743-3.935 7.134-8.382 9.47-13.213 12.797-26.362 12.157-44.47 11.133-63.505-1.602-28.292-6.229-54.814-13.585-80.175l0.628 2.529-2.207-7.358c-1.809-5.942-3.408-10.434-5.164-14.847l0.461 1.314-0.096-0.224zM185.356 555.294c-2.655 5.215-5.087 10.558-7.23 16.028-3.199 8.254-25.69 94.058-10.813 117.7l1.408 2.431c0.8 1.28 1.472 1.92 2.591 2.719l6.718 4.511c14.909 9.246 33.080 15.676 53.587 19.771 16.060 3.199 29.017 4.415 46.837 5.215l-4.511-0.16c6.807-1.539 12.514-5.461 16.323-10.825l0.057-0.084-9.246-8.958c-14.541-14.513-28.404-29.684-41.551-45.473l-0.871-1.076c-19.291-23.355-35-46.197-45.941-67.824-1.608-4.42-3.398-10.405-4.916-16.498l-0.299-1.418c-1.277-4.794-2.053-10.316-2.143-16.004l-0.001-0.056zM409.592 79.981s29.113 7.358 39.223 22.139c10.078 14.749 9.95 29.369 1.6 42.614-8.318 13.245-28.505 28.601-40.854 47.285-12.317 18.684-8.958 44.918 0 57.107s9.95 14.077 24.538 14.077c13.949 0-7.998 57.906-27.61 62.929l-2.655 0.352c-79.629 0-66.161-44.278-61.682-63.249 4.159-17.5 38.263-69.424 66.289-102.056 28.025-32.696 7.838-66.448 1.12-81.197zM873.579 0c-6.718 14.749-26.906 48.501 1.12 81.165 28.025 32.696 70.639 53.779 70.639 71.695s-11.197 95.946-90.827 95.946c-79.597 0-86.348-62.193-85.228-79.086 1.12-16.86 12.349-28.473 25.818-33.72 13.437-5.279 24.634 0 24.634 0-6.718 2.112-19.036 13.693-19.036 32.664 0 19.004 19.068 27.418 33.624 27.418 14.589 0 30.297-14.749 39.255-26.938s12.317-38.391 0-57.107c-12.349-18.684-32.504-34.008-40.854-47.285-8.35-13.245-8.478-27.833 1.6-42.614 10.142-14.781 39.287-22.139 39.287-22.139z"></path>
</svg>
